<?xml version="1.0" encoding="utf-8"?>
<!-- Generator: Adobe Illustrator 16.0.0, SVG Export Plug-In . SVG Version: 6.00 Build 0)  -->
<!DOCTYPE svg PUBLIC "-//W3C//DTD SVG 1.1//EN" "http://www.w3.org/Graphics/SVG/1.1/DTD/svg11.dtd">
<svg version="1.1" id="图层_3" xmlns="http://www.w3.org/2000/svg" xmlns:xlink="http://www.w3.org/1999/xlink" x="0px" y="0px"
	 width="192px" height="192px" viewBox="0 0 192 192" enable-background="new 0 0 192 192" xml:space="preserve">
<rect display="none" fill="#FFFFFF" width="192" height="192"/>
<path fill="#EA4335" d="M161.084,20h-129.5c-6.216,0-11.25,5.035-11.25,11.25v129.5c0,6.216,5.034,11.25,11.25,11.25h129.5
	c6.215,0,11.25-5.034,11.25-11.25V31.25C172.334,25.035,167.299,20,161.084,20z"/>
<path fill="#FFFFFF" d="M125.007,127.688c0,0-9.502-14.758-19.065-14.758l-2.138-8.891h0.062l-0.52-1.834l-2.018-8.341l4.737-19.126
	v-9.624c-0.032-5.225-4.248-9.473-9.504-9.503c-5.224,0.03-9.472,4.247-9.503,9.503v9.624l4.768,19.126l-4.768,19.065
	c-9.563,0-19.066,14.758-19.066,14.758V136h57.169v-8.312H125.007z"/>
</svg>
